<svg xmlns="http://www.w3.org/2000/svg" xmlns:xlink="http://www.w3.org/1999/xlink" width="50" height="50" viewBox="0 0 24 24">
<g>
	<path fill="#F64060" d="M5.1,17.6c-2.9-0.5-4.1-4.1-1.9-6.2c-0.1-0.3-0.3-0.6-0.4-0.9c-0.5-2,0.7-3.9,2.7-4.2c0.1,0,0.1-0.1,0.2-0.1
		c0.7-1.6,1.9-2.6,3.6-3c1.3-0.3,2.5-0.1,3.6,0.6c0.1,0.1,0.2,0.1,0.3,0c1.7-0.5,3.2-0.2,4.5,1.1c0.8,0.7,1.2,1.7,1.3,2.8
		c0,0.2,0,0.4,0,0.6c0,0.1,0,0.1,0.1,0.2c0.8,0.3,1.4,0.9,1.6,1.8c0.2,0.9-0.1,1.7-0.7,2.3c0,0-0.1,0.1-0.1,0.1c0,0,0,0,0,0
		c0.3,0.4,0.5,0.9,0.6,1.4c0.4,2.3-1,4.5-3.2,5C17,19,16.6,19,16.3,19c-0.1,0-0.2,0-0.2,0.1c-0.4,1.1-1.1,1.8-2.2,2
		c-0.9,0.2-1.7,0-2.4-0.6c-0.1-0.1-0.2-0.1-0.3,0c-0.5,0.4-1.1,0.6-1.7,0.7c-1.7,0.2-3.3-0.7-4-2.1c-0.2-0.5-0.4-1-0.4-1.5
		C5.1,17.6,5.1,17.6,5.1,17.6z M15.7,16.6c0.2,0,0.5,0,0.7-0.1c0.2-0.1,0.3-0.3,0.3-0.6c0-0.2-0.1-0.4-0.3-0.5
		c-0.1-0.1-0.3-0.1-0.4-0.1c-0.3-0.1-0.5-0.1-0.8-0.2c-0.3-0.1-0.4-0.3-0.4-0.5c0-0.2,0-0.4,0.1-0.6c0.1-0.7,0.4-1.3,0.7-1.9
		c0.3-0.7,0.6-1.5,0.9-2.2c0.1-0.3,0.2-0.7,0.1-1.1c-0.1-0.5-0.4-0.9-0.9-1.1c-0.6-0.1-1.1-0.2-1.6,0.2c-0.2,0.1-0.3,0.1-0.4,0
		c-0.1-0.1-0.1-0.1-0.2-0.2c-0.2-0.1-0.3-0.3-0.6-0.4c-0.4-0.1-0.8,0-1.2,0.3c-0.2,0.2-0.4,0.3-0.6,0.5c-0.2,0.1-0.4,0.1-0.6,0
		c-0.3-0.2-0.6-0.3-0.9-0.4C9.4,7.4,9.2,7.4,9,7.4C8.2,7.4,7.6,7.8,7.2,8.5C7.1,8.8,7,9.1,6.9,9.4c-0.5,1.6-1,3.1-1.5,4.7
		c-0.1,0.4-0.1,0.7,0.1,1.1c0.3,0.7,1,1,1.8,0.9c0.3,0,0.6-0.2,0.8-0.5c0.1-0.2,0.2-0.3,0.3-0.5c0.5-1.2,1-2.4,1.4-3.6
		c0.2-0.4,0.3-0.8,0.5-1.2c0.1-0.2,0.4-0.4,0.6-0.3c0.2,0,0.4,0.3,0.4,0.5c0,0.1,0,0.3-0.1,0.4c-0.3,0.7-0.6,1.5-0.9,2.2
		c-0.1,0.4-0.3,0.7-0.4,1.1c-0.1,0.3,0.1,0.7,0.4,0.8c0.2,0.1,0.5,0.1,0.7,0c0.4-0.1,0.6-0.4,0.8-0.7c0.3-0.6,0.6-1.2,0.9-1.8
		c0.4-0.8,0.8-1.6,1.3-2.4c0.1-0.1,0.2-0.3,0.3-0.4c0.1-0.1,0.3-0.1,0.4,0c0.1,0.1,0.2,0.2,0.1,0.3c0,0.1,0,0.2-0.1,0.3
		c-0.2,0.4-0.4,0.8-0.6,1.2c-0.3,0.7-0.7,1.4-1,2.2c-0.4,1.1,0.2,2.3,1.2,2.6C14.8,16.5,15.2,16.6,15.7,16.6z"/>
	<path fill="#F64060" d="M18.7,20.8c0,0.6-0.5,1-1.1,1c-0.5,0-1-0.5-1-1c0-0.6,0.5-1.1,1.1-1C18.2,19.8,18.7,20.2,18.7,20.8z"/>
	<path fill="#F64060" d="M-0.1,11c0-0.6,0.4-1,1-1c0.5,0,1,0.4,1,1c0,0.6-0.4,1-1,1C0.3,12-0.1,11.6-0.1,11z"/>
	<path fill="#F64060" d="M13.3,2.7c-0.6,0-1-0.4-1-1c0-0.5,0.4-1,1-1c0.5,0,1,0.4,1,1C14.3,2.2,13.9,2.7,13.3,2.7z"/>
	<path fill="#F64060" d="M20.7,6.1c0.5,0,0.8,0.4,0.8,0.8c0,0.5-0.4,0.8-0.8,0.8c-0.5,0-0.8-0.4-0.8-0.8C19.9,6.5,20.2,6.1,20.7,6.1z"/>
	<path fill="#F64060" d="M4.7,5.2C4.3,5.2,4,4.9,4,4.5c0-0.4,0.3-0.7,0.7-0.7c0.4,0,0.8,0.3,0.8,0.8C5.5,4.9,5.1,5.2,4.7,5.2z"/>
	<path fill="#F64060" d="M11.3,21.7c0.4,0,0.6,0.3,0.6,0.6c0,0.4-0.3,0.6-0.6,0.6c-0.4,0-0.6-0.3-0.6-0.6C10.7,22,10.9,21.7,11.3,21.7z"/>
	<path fill="#F64060" d="M22.2,13.4c-0.3,0-0.6-0.3-0.6-0.6c0-0.3,0.3-0.6,0.6-0.6c0.3,0,0.6,0.3,0.6,0.6C22.8,13.1,22.6,13.4,22.2,13.4z"/>
	<path fill="#F64060" d="M6.9,0c0.3,0,0.5,0.2,0.5,0.5c0,0.3-0.2,0.5-0.5,0.5c-0.3,0-0.5-0.2-0.5-0.5C6.4,0.3,6.6,0,6.9,0z"/>
	<path fill="#F64060" d="M23.4,9.2c0.3,0,0.5,0.2,0.5,0.5c0,0.3-0.2,0.5-0.5,0.5c-0.3,0-0.5-0.2-0.5-0.5C23,9.4,23.2,9.2,23.4,9.2z"/>
	<path fill="#F64060" d="M4.4,18.7c0,0.3-0.2,0.5-0.5,0.5c-0.3,0-0.5-0.2-0.5-0.5c0-0.2,0.2-0.5,0.5-0.5C4.2,18.2,4.4,18.4,4.4,18.7z"/>
</g>
</svg>
